<?xml version="1.0" encoding="UTF-8"?>
<!DOCTYPE svg PUBLIC "-//W3C//DTD SVG 1.1//EN" "http://www.w3.org/Graphics/SVG/1.1/DTD/svg11.dtd">
<!-- Creator: CorelDRAW 2018 (64 Bit Versión de evaluación) -->
<svg xmlns="http://www.w3.org/2000/svg" xml:space="preserve" width="42.3334mm" height="53.705mm" version="1.1" style="shape-rendering:geometricPrecision; text-rendering:geometricPrecision; image-rendering:optimizeQuality; fill-rule:evenodd; clip-rule:evenodd"
viewBox="0 0 2441.86 3097.79"
 xmlns:xlink="http://www.w3.org/1999/xlink">
 <defs>
  <style type="text/css">
   <![CDATA[
    .fil0 {fill:#FEFEFE}
   ]]>
  </style>
 </defs>
 <g id="Capa_x0020_1">
  <metadata id="CorelCorpID_0Corel-Layer"/>
  <path class="fil0" d="M1061.54 3008.2c-472.21,-431.64 -855.94,-875.97 -1005.7,-1353.87 -434.93,-1719.49 1798.05,-2252.33 2309.22,-859.72 11.85,28.44 22.3,57.11 31.45,86 352.94,1317.37 -1470.2,783.64 -1473.04,953.87 44.06,494.16 538.63,557.19 969.51,434 78.22,-22.36 143.21,-6.02 77.48,83.29 -12.12,16.49 -24.47,33.02 -37.04,49.57 -170.07,204.83 -339.47,417.47 -547.29,591.75 -125.68,105.41 -180.06,163.63 -324.59,15.12zm160.84 -2501.27c211.98,0 383.82,171.83 383.82,383.82 0,211.98 -171.84,383.81 -383.82,383.81 -211.98,0 -383.82,-171.83 -383.82,-383.81 0,-211.99 171.84,-383.82 383.82,-383.82z"/>
 </g>
</svg>
